<?xml version="1.0" standalone="no"?>
<!DOCTYPE svg PUBLIC "-//W3C//DTD SVG 20010904//EN"
 "http://www.w3.org/TR/2001/REC-SVG-20010904/DTD/svg10.dtd">
<svg version="1.0" xmlns="http://www.w3.org/2000/svg"
 width="225.000000pt" height="225.000000pt" viewBox="0 0 225.000000 225.000000"
 preserveAspectRatio="xMidYMid meet">

<g transform="translate(0.000000,225.000000) scale(0.100000,-0.100000)"
fill="#000000" stroke="none">
<path d="M0 1125 l0 -1125 1125 0 1125 0 0 1125 0 1125 -1125 0 -1125 0 0
-1125z m1049 169 l156 -221 3 223 2 224 23 0 c17 0 49 -37 142 -166 65 -91
122 -167 126 -170 4 -2 63 72 131 166 96 132 128 170 146 170 l22 0 0 -325 0
-325 -60 0 -60 0 -2 165 -3 165 -83 -105 c-45 -58 -86 -105 -90 -105 -4 1 -43
48 -87 106 l-80 105 -3 -166 -2 -165 -60 0 -60 0 -36 55 -37 55 -148 0 -149 0
0 75 0 74 89 3 90 3 -87 122 -87 122 -90 1 -90 0 3 -255 3 -255 -71 0 -70 0 0
255 0 255 -95 0 -95 0 0 70 0 70 277 -2 276 -3 156 -221z m-419 -449 c0 -8 -9
-15 -20 -15 -18 0 -20 -7 -20 -55 0 -30 -4 -55 -10 -55 -5 0 -10 24 -10 54 0
46 -3 54 -21 59 -35 9 -11 27 37 27 32 0 44 -4 44 -15z m30 -10 c0 -7 10 -15
23 -17 19 -3 22 -10 25 -50 2 -29 -1 -48 -7 -48 -6 0 -11 18 -11 40 0 29 -4
40 -15 40 -11 0 -15 -11 -15 -40 0 -22 -4 -40 -10 -40 -6 0 -10 30 -10 71 0
44 4 68 10 64 6 -3 10 -12 10 -20z m279 -43 c12 -29 21 -57 21 -62 0 -18 -19
-10 -25 10 -7 24 -55 28 -55 6 0 -15 -18 -31 -26 -24 -4 5 30 109 42 129 9 15
20 1 43 -59z m51 -2 c0 -40 -4 -70 -10 -70 -11 0 -14 123 -3 133 12 13 13 7
13 -63z m131 54 c10 -13 10 -19 0 -36 -9 -15 -10 -23 -2 -31 8 -8 11 -8 11 1
0 7 4 12 8 12 4 0 8 -15 8 -33 0 -32 -2 -34 -37 -35 -47 -2 -67 18 -50 54 6
14 11 36 11 49 0 20 10 32 31 34 4 1 12 -6 20 -15z m129 -38 l16 -48 15 48
c23 74 39 68 39 -15 0 -73 -19 -103 -21 -33 l-1 37 -10 -37 c-6 -21 -15 -38
-22 -38 -7 0 -17 17 -23 38 l-10 37 -2 -37 c-2 -70 -21 -40 -21 33 0 84 16 90
40 15z m140 -66 c17 0 30 -4 30 -10 0 -5 -18 -10 -40 -10 l-40 0 0 63 c0 83
14 97 18 18 3 -60 3 -61 32 -61z m172 98 c14 -14 17 -23 10 -26 -7 -2 -19 3
-27 12 -20 20 -44 10 -52 -22 -12 -47 35 -82 62 -45 17 24 30 11 15 -16 -13
-26 -56 -28 -82 -4 -24 22 -24 77 2 103 26 26 45 25 72 -2z m48 -48 c0 -40 -4
-70 -10 -70 -6 0 -10 30 -10 70 0 40 4 70 10 70 6 0 10 -30 10 -70z m130 44
c0 -8 9 -14 20 -14 27 0 43 -41 30 -75 -7 -19 -17 -25 -40 -25 l-30 0 0 71 c0
44 4 68 10 64 6 -3 10 -13 10 -21z m-940 -33 c16 -32 12 -41 -20 -41 -16 0
-30 -5 -30 -11 0 -7 11 -8 32 -3 29 6 31 5 19 -10 -37 -44 -97 5 -73 59 14 31
56 34 72 6z m850 -21 c0 -29 4 -40 15 -40 11 0 15 11 15 40 0 22 5 40 10 40 6
0 10 -23 10 -51 l0 -50 -32 3 c-32 3 -33 5 -36 51 -2 28 1 47 7 47 6 0 11 -18
11 -40z"/>
<path d="M897 801 c-3 -14 0 -21 9 -21 16 0 18 9 5 28 -6 10 -10 9 -14 -7z"/>
<path d="M1090 824 c0 -8 5 -12 10 -9 6 4 8 11 5 16 -9 14 -15 11 -15 -7z"/>
<path d="M1075 770 c-8 -13 3 -30 21 -30 18 0 18 14 0 29 -10 8 -16 9 -21 1z"/>
<path d="M1740 770 c0 -20 5 -30 15 -30 10 0 15 10 15 30 0 20 -5 30 -15 30
-10 0 -15 -10 -15 -30z"/>
<path d="M750 790 c0 -5 7 -10 15 -10 8 0 15 5 15 10 0 6 -7 10 -15 10 -8 0
-15 -4 -15 -10z"/>
</g>
</svg>
